<svg width="80" height="80" viewBox="0 0 80 80" fill="none" xmlns="http://www.w3.org/2000/svg">
<path d="M0 0H80V80H0V0Z" fill="#382A2C"/>
<path d="M22.2839 32.1453C19.9605 32.1453 18.7989 32.959 18.7989 34.5864C18.7989 35.4276 19.0733 36.031 19.6221 36.3967C20.1709 36.7441 21.3783 37.183 23.2443 37.7133C25.1286 38.2253 26.4549 38.847 27.2233 39.5784C27.9916 40.2916 28.3758 41.4253 28.3758 42.9796C28.3758 44.9544 27.8087 46.4356 26.6744 47.423C25.5585 48.3921 24.031 48.8767 22.0918 48.8767C20.5368 48.8767 18.8172 48.6939 16.9329 48.3281L15.945 48.1361L16.2469 45.695C18.7166 46.0241 20.6008 46.1887 21.8997 46.1887C24.1682 46.1887 25.3024 45.183 25.3024 43.1716C25.3024 42.3853 25.0463 41.8093 24.534 41.4436C24.0218 41.0596 22.8693 40.6481 21.0765 40.2093C19.2837 39.7521 17.9482 39.1304 17.0701 38.3441C16.192 37.5579 15.7529 36.3144 15.7529 34.6139C15.7529 32.9133 16.3018 31.6333 17.3994 30.7739C18.5153 29.8961 20.052 29.4573 22.0095 29.4573C23.4181 29.4573 25.0829 29.6219 27.0037 29.951L27.9642 30.1156L27.7172 32.5841C25.156 32.2916 23.3449 32.1453 22.2839 32.1453Z" fill="white" fill-opacity="0.5"/>
<path d="M22.2839 32.1453C19.9605 32.1453 18.7989 32.959 18.7989 34.5864C18.7989 35.4276 19.0733 36.031 19.6221 36.3967C20.1709 36.7441 21.3783 37.183 23.2443 37.7133C25.1286 38.2253 26.4549 38.847 27.2233 39.5784C27.9916 40.2916 28.3758 41.4253 28.3758 42.9796C28.3758 44.9544 27.8087 46.4356 26.6744 47.423C25.5585 48.3921 24.031 48.8767 22.0918 48.8767C20.5368 48.8767 18.8172 48.6939 16.9329 48.3281L15.945 48.1361L16.2469 45.695C18.7166 46.0241 20.6008 46.1887 21.8997 46.1887C24.1682 46.1887 25.3024 45.183 25.3024 43.1716C25.3024 42.3853 25.0463 41.8093 24.534 41.4436C24.0218 41.0596 22.8693 40.6481 21.0765 40.2093C19.2837 39.7521 17.9482 39.1304 17.0701 38.3441C16.192 37.5579 15.7529 36.3144 15.7529 34.6139C15.7529 32.9133 16.3018 31.6333 17.3994 30.7739C18.5153 29.8961 20.052 29.4573 22.0095 29.4573C23.4181 29.4573 25.0829 29.6219 27.0037 29.951L27.9642 30.1156L27.7172 32.5841C25.156 32.2916 23.3449 32.1453 22.2839 32.1453Z" fill="white" fill-opacity="0.7"/>
<path d="M22.2839 32.1453C19.9605 32.1453 18.7989 32.959 18.7989 34.5864C18.7989 35.4276 19.0733 36.031 19.6221 36.3967C20.1709 36.7441 21.3783 37.183 23.2443 37.7133C25.1286 38.2253 26.4549 38.847 27.2233 39.5784C27.9916 40.2916 28.3758 41.4253 28.3758 42.9796C28.3758 44.9544 27.8087 46.4356 26.6744 47.423C25.5585 48.3921 24.031 48.8767 22.0918 48.8767C20.5368 48.8767 18.8172 48.6939 16.9329 48.3281L15.945 48.1361L16.2469 45.695C18.7166 46.0241 20.6008 46.1887 21.8997 46.1887C24.1682 46.1887 25.3024 45.183 25.3024 43.1716C25.3024 42.3853 25.0463 41.8093 24.534 41.4436C24.0218 41.0596 22.8693 40.6481 21.0765 40.2093C19.2837 39.7521 17.9482 39.1304 17.0701 38.3441C16.192 37.5579 15.7529 36.3144 15.7529 34.6139C15.7529 32.9133 16.3018 31.6333 17.3994 30.7739C18.5153 29.8961 20.052 29.4573 22.0095 29.4573C23.4181 29.4573 25.0829 29.6219 27.0037 29.951L27.9642 30.1156L27.7172 32.5841C25.156 32.2916 23.3449 32.1453 22.2839 32.1453Z" fill="white"/>
<path d="M39.6257 34.8607H42.5893V48.575H39.6257V47.7247C38.2903 48.4927 37.0554 48.8767 35.9212 48.8767C34.0369 48.8767 32.7746 48.3739 32.1343 47.3681C31.494 46.3441 31.1739 44.5613 31.1739 42.0196V34.8607H34.165V42.047C34.165 43.6927 34.3022 44.799 34.5766 45.3659C34.851 45.9327 35.4913 46.2161 36.4974 46.2161C37.4853 46.2161 38.3909 46.0333 39.2141 45.6676L39.6257 45.503V34.8607Z" fill="white" fill-opacity="0.5"/>
<path d="M39.6257 34.8607H42.5893V48.575H39.6257V47.7247C38.2903 48.4927 37.0554 48.8767 35.9212 48.8767C34.0369 48.8767 32.7746 48.3739 32.1343 47.3681C31.494 46.3441 31.1739 44.5613 31.1739 42.0196V34.8607H34.165V42.047C34.165 43.6927 34.3022 44.799 34.5766 45.3659C34.851 45.9327 35.4913 46.2161 36.4974 46.2161C37.4853 46.2161 38.3909 46.0333 39.2141 45.6676L39.6257 45.503V34.8607Z" fill="white" fill-opacity="0.7"/>
<path d="M39.6257 34.8607H42.5893V48.575H39.6257V47.7247C38.2903 48.4927 37.0554 48.8767 35.9212 48.8767C34.0369 48.8767 32.7746 48.3739 32.1343 47.3681C31.494 46.3441 31.1739 44.5613 31.1739 42.0196V34.8607H34.165V42.047C34.165 43.6927 34.3022 44.799 34.5766 45.3659C34.851 45.9327 35.4913 46.2161 36.4974 46.2161C37.4853 46.2161 38.3909 46.0333 39.2141 45.6676L39.6257 45.503V34.8607Z" fill="white"/>
<path d="M58.2024 50.4401C58.2024 53.439 56.0345 54.9384 51.6989 54.9384C49.6134 54.9384 48.0675 54.655 47.0614 54.0881C46.0552 53.5213 45.5521 52.4881 45.5521 50.9887C45.5521 50.3121 45.7167 49.727 46.046 49.2333C46.3753 48.7579 46.9059 48.2367 47.6376 47.6699C47.0339 47.2676 46.7321 46.6001 46.7321 45.6676C46.7321 45.3019 46.979 44.7076 47.473 43.8847L47.7199 43.4733C46.4028 42.687 45.7442 41.3156 45.7442 39.359C45.7442 37.7133 46.2381 36.5064 47.226 35.7384C48.2139 34.9704 49.5493 34.5864 51.2324 34.5864C52.0373 34.5864 52.8331 34.6779 53.6197 34.8607L54.0314 34.943L58.2847 34.8333V37.247L56.0071 37.1099C56.501 37.7499 56.748 38.4996 56.748 39.359C56.748 41.151 56.2907 42.3944 55.376 43.0893C54.4796 43.7659 53.0709 44.1041 51.1501 44.1041C50.6744 44.1041 50.2719 44.0676 49.9427 43.9944C49.6865 44.6161 49.5585 45.1007 49.5585 45.4481C49.5585 45.7773 49.7231 46.0059 50.0524 46.1339C50.4 46.2619 51.2232 46.335 52.5221 46.3533C54.6991 46.3716 56.1901 46.6641 56.995 47.231C57.7999 47.7979 58.2024 48.8676 58.2024 50.4401ZM48.4883 50.7144C48.4883 51.3544 48.7444 51.8116 49.2566 52.0859C49.7689 52.3601 50.647 52.4973 51.891 52.4973C54.1045 52.4973 55.2113 51.8664 55.2113 50.6047C55.2113 49.8916 55.0101 49.4344 54.6076 49.2333C54.2234 49.0504 53.446 48.9499 52.2751 48.9316L49.5859 48.767C49.1835 49.0961 48.8999 49.3979 48.7353 49.6721C48.5706 49.9647 48.4883 50.3121 48.4883 50.7144ZM48.7078 39.359C48.7078 40.2001 48.909 40.8219 49.3115 41.2241C49.714 41.6081 50.3634 41.8001 51.2598 41.8001C52.1562 41.8001 52.7965 41.6081 53.1807 41.2241C53.5832 40.8219 53.7844 40.2001 53.7844 39.359C53.7844 38.5179 53.5832 37.9053 53.1807 37.5213C52.7782 37.119 52.1288 36.9179 51.2324 36.9179C49.5493 36.9179 48.7078 37.7316 48.7078 39.359Z" fill="white" fill-opacity="0.5"/>
<path d="M58.2024 50.4401C58.2024 53.439 56.0345 54.9384 51.6989 54.9384C49.6134 54.9384 48.0675 54.655 47.0614 54.0881C46.0552 53.5213 45.5521 52.4881 45.5521 50.9887C45.5521 50.3121 45.7167 49.727 46.046 49.2333C46.3753 48.7579 46.9059 48.2367 47.6376 47.6699C47.0339 47.2676 46.7321 46.6001 46.7321 45.6676C46.7321 45.3019 46.979 44.7076 47.473 43.8847L47.7199 43.4733C46.4028 42.687 45.7442 41.3156 45.7442 39.359C45.7442 37.7133 46.2381 36.5064 47.226 35.7384C48.2139 34.9704 49.5493 34.5864 51.2324 34.5864C52.0373 34.5864 52.8331 34.6779 53.6197 34.8607L54.0314 34.943L58.2847 34.8333V37.247L56.0071 37.1099C56.501 37.7499 56.748 38.4996 56.748 39.359C56.748 41.151 56.2907 42.3944 55.376 43.0893C54.4796 43.7659 53.0709 44.1041 51.1501 44.1041C50.6744 44.1041 50.2719 44.0676 49.9427 43.9944C49.6865 44.6161 49.5585 45.1007 49.5585 45.4481C49.5585 45.7773 49.7231 46.0059 50.0524 46.1339C50.4 46.2619 51.2232 46.335 52.5221 46.3533C54.6991 46.3716 56.1901 46.6641 56.995 47.231C57.7999 47.7979 58.2024 48.8676 58.2024 50.4401ZM48.4883 50.7144C48.4883 51.3544 48.7444 51.8116 49.2566 52.0859C49.7689 52.3601 50.647 52.4973 51.891 52.4973C54.1045 52.4973 55.2113 51.8664 55.2113 50.6047C55.2113 49.8916 55.0101 49.4344 54.6076 49.2333C54.2234 49.0504 53.446 48.9499 52.2751 48.9316L49.5859 48.767C49.1835 49.0961 48.8999 49.3979 48.7353 49.6721C48.5706 49.9647 48.4883 50.3121 48.4883 50.7144ZM48.7078 39.359C48.7078 40.2001 48.909 40.8219 49.3115 41.2241C49.714 41.6081 50.3634 41.8001 51.2598 41.8001C52.1562 41.8001 52.7965 41.6081 53.1807 41.2241C53.5832 40.8219 53.7844 40.2001 53.7844 39.359C53.7844 38.5179 53.5832 37.9053 53.1807 37.5213C52.7782 37.119 52.1288 36.9179 51.2324 36.9179C49.5493 36.9179 48.7078 37.7316 48.7078 39.359Z" fill="white" fill-opacity="0.7"/>
<path d="M58.2024 50.4401C58.2024 53.439 56.0345 54.9384 51.6989 54.9384C49.6134 54.9384 48.0675 54.655 47.0614 54.0881C46.0552 53.5213 45.5521 52.4881 45.5521 50.9887C45.5521 50.3121 45.7167 49.727 46.046 49.2333C46.3753 48.7579 46.9059 48.2367 47.6376 47.6699C47.0339 47.2676 46.7321 46.6001 46.7321 45.6676C46.7321 45.3019 46.979 44.7076 47.473 43.8847L47.7199 43.4733C46.4028 42.687 45.7442 41.3156 45.7442 39.359C45.7442 37.7133 46.2381 36.5064 47.226 35.7384C48.2139 34.9704 49.5493 34.5864 51.2324 34.5864C52.0373 34.5864 52.8331 34.6779 53.6197 34.8607L54.0314 34.943L58.2847 34.8333V37.247L56.0071 37.1099C56.501 37.7499 56.748 38.4996 56.748 39.359C56.748 41.151 56.2907 42.3944 55.376 43.0893C54.4796 43.7659 53.0709 44.1041 51.1501 44.1041C50.6744 44.1041 50.2719 44.0676 49.9427 43.9944C49.6865 44.6161 49.5585 45.1007 49.5585 45.4481C49.5585 45.7773 49.7231 46.0059 50.0524 46.1339C50.4 46.2619 51.2232 46.335 52.5221 46.3533C54.6991 46.3716 56.1901 46.6641 56.995 47.231C57.7999 47.7979 58.2024 48.8676 58.2024 50.4401ZM48.4883 50.7144C48.4883 51.3544 48.7444 51.8116 49.2566 52.0859C49.7689 52.3601 50.647 52.4973 51.891 52.4973C54.1045 52.4973 55.2113 51.8664 55.2113 50.6047C55.2113 49.8916 55.0101 49.4344 54.6076 49.2333C54.2234 49.0504 53.446 48.9499 52.2751 48.9316L49.5859 48.767C49.1835 49.0961 48.8999 49.3979 48.7353 49.6721C48.5706 49.9647 48.4883 50.3121 48.4883 50.7144ZM48.7078 39.359C48.7078 40.2001 48.909 40.8219 49.3115 41.2241C49.714 41.6081 50.3634 41.8001 51.2598 41.8001C52.1562 41.8001 52.7965 41.6081 53.1807 41.2241C53.5832 40.8219 53.7844 40.2001 53.7844 39.359C53.7844 38.5179 53.5832 37.9053 53.1807 37.5213C52.7782 37.119 52.1288 36.9179 51.2324 36.9179C49.5493 36.9179 48.7078 37.7316 48.7078 39.359Z" fill="white"/>
<path d="M60.6279 48.575V34.8607H63.619V48.575H60.6279ZM60.6279 32.5293V29.375H63.619V32.5293H60.6279Z" fill="white" fill-opacity="0.5"/>
<path d="M60.6279 48.575V34.8607H63.619V48.575H60.6279ZM60.6279 32.5293V29.375H63.619V32.5293H60.6279Z" fill="white" fill-opacity="0.7"/>
<path d="M60.6279 48.575V34.8607H63.619V48.575H60.6279ZM60.6279 32.5293V29.375H63.619V32.5293H60.6279Z" fill="white"/>
</svg>
