<svg width="49" height="26" viewBox="0 0 49 26" fill="none" xmlns="http://www.w3.org/2000/svg">
<path d="M7.28388 3.14529C4.96054 3.14529 3.79888 3.959 3.79888 5.58643C3.79888 6.42757 4.07329 7.031 4.62211 7.39671C5.17093 7.74414 6.37833 8.183 8.24431 8.71329C10.1286 9.22529 11.4549 9.847 12.2233 10.5784C12.9916 11.2916 13.3758 12.4253 13.3758 13.9796C13.3758 15.9544 12.8087 17.4356 11.6744 18.423C10.5585 19.3921 9.03095 19.8767 7.09179 19.8767C5.5368 19.8767 3.81717 19.6939 1.93289 19.3281L0.945017 19.1361L1.24687 16.695C3.71655 17.0241 5.60083 17.1887 6.89971 17.1887C9.16816 17.1887 10.3024 16.183 10.3024 14.1716C10.3024 13.3853 10.0463 12.8093 9.53404 12.4436C9.02181 12.0596 7.86929 11.6481 6.07648 11.2093C4.28367 10.7521 2.94821 10.1304 2.0701 9.34414C1.19199 8.55786 0.75293 7.31443 0.75293 5.61386C0.75293 3.91329 1.30175 2.63329 2.39939 1.77386C3.51532 0.896144 5.05202 0.457284 7.00947 0.457284C8.41811 0.457284 10.0829 0.621857 12.0037 0.951L12.9642 1.11557L12.7172 3.58414C10.156 3.29157 8.34493 3.14529 7.28388 3.14529Z" fill="white" fill-opacity="0.5"/>
<path d="M7.28388 3.14529C4.96054 3.14529 3.79888 3.959 3.79888 5.58643C3.79888 6.42757 4.07329 7.031 4.62211 7.39671C5.17093 7.74414 6.37833 8.183 8.24431 8.71329C10.1286 9.22529 11.4549 9.847 12.2233 10.5784C12.9916 11.2916 13.3758 12.4253 13.3758 13.9796C13.3758 15.9544 12.8087 17.4356 11.6744 18.423C10.5585 19.3921 9.03095 19.8767 7.09179 19.8767C5.5368 19.8767 3.81717 19.6939 1.93289 19.3281L0.945017 19.1361L1.24687 16.695C3.71655 17.0241 5.60083 17.1887 6.89971 17.1887C9.16816 17.1887 10.3024 16.183 10.3024 14.1716C10.3024 13.3853 10.0463 12.8093 9.53404 12.4436C9.02181 12.0596 7.86929 11.6481 6.07648 11.2093C4.28367 10.7521 2.94821 10.1304 2.0701 9.34414C1.19199 8.55786 0.75293 7.31443 0.75293 5.61386C0.75293 3.91329 1.30175 2.63329 2.39939 1.77386C3.51532 0.896144 5.05202 0.457284 7.00947 0.457284C8.41811 0.457284 10.0829 0.621857 12.0037 0.951L12.9642 1.11557L12.7172 3.58414C10.156 3.29157 8.34493 3.14529 7.28388 3.14529Z" fill="white" fill-opacity="0.7"/>
<path d="M7.28388 3.14529C4.96054 3.14529 3.79888 3.959 3.79888 5.58643C3.79888 6.42757 4.07329 7.031 4.62211 7.39671C5.17093 7.74414 6.37833 8.183 8.24431 8.71329C10.1286 9.22529 11.4549 9.847 12.2233 10.5784C12.9916 11.2916 13.3758 12.4253 13.3758 13.9796C13.3758 15.9544 12.8087 17.4356 11.6744 18.423C10.5585 19.3921 9.03095 19.8767 7.09179 19.8767C5.5368 19.8767 3.81717 19.6939 1.93289 19.3281L0.945017 19.1361L1.24687 16.695C3.71655 17.0241 5.60083 17.1887 6.89971 17.1887C9.16816 17.1887 10.3024 16.183 10.3024 14.1716C10.3024 13.3853 10.0463 12.8093 9.53404 12.4436C9.02181 12.0596 7.86929 11.6481 6.07648 11.2093C4.28367 10.7521 2.94821 10.1304 2.0701 9.34414C1.19199 8.55786 0.75293 7.31443 0.75293 5.61386C0.75293 3.91329 1.30175 2.63329 2.39939 1.77386C3.51532 0.896144 5.05202 0.457284 7.00947 0.457284C8.41811 0.457284 10.0829 0.621857 12.0037 0.951L12.9642 1.11557L12.7172 3.58414C10.156 3.29157 8.34493 3.14529 7.28388 3.14529Z" fill="white"/>
<path d="M24.6257 5.86071H27.5893V19.575H24.6257V18.7247C23.2903 19.4927 22.0554 19.8767 20.9212 19.8767C19.0369 19.8767 17.7746 19.3739 17.1343 18.3681C16.494 17.3441 16.1739 15.5613 16.1739 13.0196V5.86071H19.165V13.047C19.165 14.6927 19.3022 15.799 19.5766 16.3659C19.851 16.9327 20.4913 17.2161 21.4974 17.2161C22.4853 17.2161 23.3909 17.0333 24.2141 16.6676L24.6257 16.503V5.86071Z" fill="white" fill-opacity="0.5"/>
<path d="M24.6257 5.86071H27.5893V19.575H24.6257V18.7247C23.2903 19.4927 22.0554 19.8767 20.9212 19.8767C19.0369 19.8767 17.7746 19.3739 17.1343 18.3681C16.494 17.3441 16.1739 15.5613 16.1739 13.0196V5.86071H19.165V13.047C19.165 14.6927 19.3022 15.799 19.5766 16.3659C19.851 16.9327 20.4913 17.2161 21.4974 17.2161C22.4853 17.2161 23.3909 17.0333 24.2141 16.6676L24.6257 16.503V5.86071Z" fill="white" fill-opacity="0.7"/>
<path d="M24.6257 5.86071H27.5893V19.575H24.6257V18.7247C23.2903 19.4927 22.0554 19.8767 20.9212 19.8767C19.0369 19.8767 17.7746 19.3739 17.1343 18.3681C16.494 17.3441 16.1739 15.5613 16.1739 13.0196V5.86071H19.165V13.047C19.165 14.6927 19.3022 15.799 19.5766 16.3659C19.851 16.9327 20.4913 17.2161 21.4974 17.2161C22.4853 17.2161 23.3909 17.0333 24.2141 16.6676L24.6257 16.503V5.86071Z" fill="white"/>
<path d="M43.2024 21.4401C43.2024 24.439 41.0345 25.9384 36.6989 25.9384C34.6134 25.9384 33.0675 25.655 32.0614 25.0881C31.0552 24.5213 30.5521 23.4881 30.5521 21.9887C30.5521 21.3121 30.7167 20.727 31.046 20.2333C31.3753 19.7579 31.9059 19.2367 32.6376 18.6699C32.0339 18.2676 31.7321 17.6001 31.7321 16.6676C31.7321 16.3019 31.979 15.7076 32.473 14.8847L32.7199 14.4733C31.4028 13.687 30.7442 12.3156 30.7442 10.359C30.7442 8.71329 31.2381 7.50643 32.226 6.73843C33.2139 5.97043 34.5493 5.58643 36.2324 5.58643C37.0373 5.58643 37.8331 5.67786 38.6197 5.86071L39.0314 5.943L43.2847 5.83329V8.247L41.0071 8.10986C41.501 8.74986 41.748 9.49957 41.748 10.359C41.748 12.151 41.2907 13.3944 40.376 14.0893C39.4796 14.7659 38.0709 15.1041 36.1501 15.1041C35.6744 15.1041 35.2719 15.0676 34.9427 14.9944C34.6865 15.6161 34.5585 16.1007 34.5585 16.4481C34.5585 16.7773 34.7231 17.0059 35.0524 17.1339C35.4 17.2619 36.2232 17.335 37.5221 17.3533C39.6991 17.3716 41.1901 17.6641 41.995 18.231C42.7999 18.7979 43.2024 19.8676 43.2024 21.4401ZM33.4883 21.7144C33.4883 22.3544 33.7444 22.8116 34.2566 23.0859C34.7689 23.3601 35.647 23.4973 36.891 23.4973C39.1045 23.4973 40.2113 22.8664 40.2113 21.6047C40.2113 20.8916 40.0101 20.4344 39.6076 20.2333C39.2234 20.0504 38.446 19.9499 37.2751 19.9316L34.5859 19.767C34.1835 20.0961 33.8999 20.3979 33.7353 20.6721C33.5706 20.9647 33.4883 21.3121 33.4883 21.7144ZM33.7078 10.359C33.7078 11.2001 33.909 11.8219 34.3115 12.2241C34.714 12.6081 35.3634 12.8001 36.2598 12.8001C37.1562 12.8001 37.7965 12.6081 38.1807 12.2241C38.5832 11.8219 38.7844 11.2001 38.7844 10.359C38.7844 9.51786 38.5832 8.90529 38.1807 8.52129C37.7782 8.119 37.1288 7.91786 36.2324 7.91786C34.5493 7.91786 33.7078 8.73157 33.7078 10.359Z" fill="white" fill-opacity="0.5"/>
<path d="M43.2024 21.4401C43.2024 24.439 41.0345 25.9384 36.6989 25.9384C34.6134 25.9384 33.0675 25.655 32.0614 25.0881C31.0552 24.5213 30.5521 23.4881 30.5521 21.9887C30.5521 21.3121 30.7167 20.727 31.046 20.2333C31.3753 19.7579 31.9059 19.2367 32.6376 18.6699C32.0339 18.2676 31.7321 17.6001 31.7321 16.6676C31.7321 16.3019 31.979 15.7076 32.473 14.8847L32.7199 14.4733C31.4028 13.687 30.7442 12.3156 30.7442 10.359C30.7442 8.71329 31.2381 7.50643 32.226 6.73843C33.2139 5.97043 34.5493 5.58643 36.2324 5.58643C37.0373 5.58643 37.8331 5.67786 38.6197 5.86071L39.0314 5.943L43.2847 5.83329V8.247L41.0071 8.10986C41.501 8.74986 41.748 9.49957 41.748 10.359C41.748 12.151 41.2907 13.3944 40.376 14.0893C39.4796 14.7659 38.0709 15.1041 36.1501 15.1041C35.6744 15.1041 35.2719 15.0676 34.9427 14.9944C34.6865 15.6161 34.5585 16.1007 34.5585 16.4481C34.5585 16.7773 34.7231 17.0059 35.0524 17.1339C35.4 17.2619 36.2232 17.335 37.5221 17.3533C39.6991 17.3716 41.1901 17.6641 41.995 18.231C42.7999 18.7979 43.2024 19.8676 43.2024 21.4401ZM33.4883 21.7144C33.4883 22.3544 33.7444 22.8116 34.2566 23.0859C34.7689 23.3601 35.647 23.4973 36.891 23.4973C39.1045 23.4973 40.2113 22.8664 40.2113 21.6047C40.2113 20.8916 40.0101 20.4344 39.6076 20.2333C39.2234 20.0504 38.446 19.9499 37.2751 19.9316L34.5859 19.767C34.1835 20.0961 33.8999 20.3979 33.7353 20.6721C33.5706 20.9647 33.4883 21.3121 33.4883 21.7144ZM33.7078 10.359C33.7078 11.2001 33.909 11.8219 34.3115 12.2241C34.714 12.6081 35.3634 12.8001 36.2598 12.8001C37.1562 12.8001 37.7965 12.6081 38.1807 12.2241C38.5832 11.8219 38.7844 11.2001 38.7844 10.359C38.7844 9.51786 38.5832 8.90529 38.1807 8.52129C37.7782 8.119 37.1288 7.91786 36.2324 7.91786C34.5493 7.91786 33.7078 8.73157 33.7078 10.359Z" fill="white" fill-opacity="0.7"/>
<path d="M43.2024 21.4401C43.2024 24.439 41.0345 25.9384 36.6989 25.9384C34.6134 25.9384 33.0675 25.655 32.0614 25.0881C31.0552 24.5213 30.5521 23.4881 30.5521 21.9887C30.5521 21.3121 30.7167 20.727 31.046 20.2333C31.3753 19.7579 31.9059 19.2367 32.6376 18.6699C32.0339 18.2676 31.7321 17.6001 31.7321 16.6676C31.7321 16.3019 31.979 15.7076 32.473 14.8847L32.7199 14.4733C31.4028 13.687 30.7442 12.3156 30.7442 10.359C30.7442 8.71329 31.2381 7.50643 32.226 6.73843C33.2139 5.97043 34.5493 5.58643 36.2324 5.58643C37.0373 5.58643 37.8331 5.67786 38.6197 5.86071L39.0314 5.943L43.2847 5.83329V8.247L41.0071 8.10986C41.501 8.74986 41.748 9.49957 41.748 10.359C41.748 12.151 41.2907 13.3944 40.376 14.0893C39.4796 14.7659 38.0709 15.1041 36.1501 15.1041C35.6744 15.1041 35.2719 15.0676 34.9427 14.9944C34.6865 15.6161 34.5585 16.1007 34.5585 16.4481C34.5585 16.7773 34.7231 17.0059 35.0524 17.1339C35.4 17.2619 36.2232 17.335 37.5221 17.3533C39.6991 17.3716 41.1901 17.6641 41.995 18.231C42.7999 18.7979 43.2024 19.8676 43.2024 21.4401ZM33.4883 21.7144C33.4883 22.3544 33.7444 22.8116 34.2566 23.0859C34.7689 23.3601 35.647 23.4973 36.891 23.4973C39.1045 23.4973 40.2113 22.8664 40.2113 21.6047C40.2113 20.8916 40.0101 20.4344 39.6076 20.2333C39.2234 20.0504 38.446 19.9499 37.2751 19.9316L34.5859 19.767C34.1835 20.0961 33.8999 20.3979 33.7353 20.6721C33.5706 20.9647 33.4883 21.3121 33.4883 21.7144ZM33.7078 10.359C33.7078 11.2001 33.909 11.8219 34.3115 12.2241C34.714 12.6081 35.3634 12.8001 36.2598 12.8001C37.1562 12.8001 37.7965 12.6081 38.1807 12.2241C38.5832 11.8219 38.7844 11.2001 38.7844 10.359C38.7844 9.51786 38.5832 8.90529 38.1807 8.52129C37.7782 8.119 37.1288 7.91786 36.2324 7.91786C34.5493 7.91786 33.7078 8.73157 33.7078 10.359Z" fill="white"/>
<path d="M45.6279 19.575V5.86071H48.619V19.575H45.6279ZM45.6279 3.52929V0.375H48.619V3.52929H45.6279Z" fill="white" fill-opacity="0.5"/>
<path d="M45.6279 19.575V5.86071H48.619V19.575H45.6279ZM45.6279 3.52929V0.375H48.619V3.52929H45.6279Z" fill="white" fill-opacity="0.7"/>
<path d="M45.6279 19.575V5.86071H48.619V19.575H45.6279ZM45.6279 3.52929V0.375H48.619V3.52929H45.6279Z" fill="white"/>
</svg>
