<svg width="135" height="40" viewBox="0 0 135 40" fill="none" xmlns="http://www.w3.org/2000/svg">
<path d="M5 0.5H130C132.474 0.5 134.5 2.52614 134.5 5V35C134.5 37.4739 132.474 39.5 130 39.5H5C2.52614 39.5 0.5 37.4739 0.5 35V5C0.5 2.52614 2.52614 0.5 5 0.5Z" stroke="#382A2C"/>
<path d="M47.4184 10.2427C47.4184 11.0806 47.1704 11.748 46.6733 12.2456C46.1089 12.8374 45.3735 13.1333 44.4692 13.1333C43.603 13.1333 42.8667 12.8335 42.2612 12.2329C41.6548 11.6323 41.3521 10.8877 41.3521 9.99953C41.3521 9.11083 41.6548 8.36673 42.2612 7.76613C42.8667 7.16553 43.603 6.86523 44.4692 6.86523C44.8989 6.86523 45.31 6.94924 45.7006 7.11674C46.0912 7.28474 46.4047 7.50783 46.6391 7.78713L46.1118 8.31493C45.7144 7.84033 45.1675 7.60303 44.4692 7.60303C43.8374 7.60303 43.2915 7.82474 42.8306 8.26904C42.3696 8.71344 42.1391 9.29003 42.1391 9.99953C42.1391 10.709 42.3696 11.2856 42.8306 11.73C43.2915 12.1743 43.8374 12.396 44.4692 12.396C45.1392 12.396 45.6978 12.1728 46.145 11.7261C46.4351 11.435 46.603 11.0303 46.6479 10.5107H44.4692V9.79004H47.3764C47.4047 9.94684 47.4184 10.0972 47.4184 10.2427Z" fill="#382A2C"/>
<path d="M52.0278 7.73684H49.2953V9.63914H51.7593V10.3599H49.2953V12.2622H52.0278V12.9995H48.5248V6.99953H52.0278V7.73684Z" fill="#382A2C"/>
<path d="M55.2788 12.9995H54.5073V7.73684H52.8315V6.99953H56.9545V7.73684H55.2788V12.9995Z" fill="#382A2C"/>
<path d="M59.938 12.9995V6.99953H60.7085V12.9995H59.938Z" fill="#382A2C"/>
<path d="M64.1284 12.9995H63.3569V7.73684H61.6811V6.99953H65.8041V7.73684H64.1284V12.9995Z" fill="#382A2C"/>
<path d="M73.6093 12.2241C73.0194 12.8306 72.2861 13.1333 71.4092 13.1333C70.5322 13.1333 69.7987 12.8306 69.2099 12.2241C68.62 11.6182 68.3262 10.8765 68.3262 9.99953C68.3262 9.12253 68.62 8.38083 69.2099 7.77493C69.7987 7.16843 70.5322 6.86523 71.4092 6.86523C72.2813 6.86523 73.0126 7.16994 73.6054 7.77884C74.1972 8.38774 74.4931 9.12793 74.4931 9.99953C74.4931 10.8765 74.1981 11.6182 73.6093 12.2241ZM69.7792 11.7217C70.2236 12.1714 70.7666 12.396 71.4092 12.396C72.0518 12.396 72.5957 12.1714 73.0391 11.7217C73.4834 11.272 73.7061 10.6977 73.7061 9.99953C73.7061 9.30133 73.4834 8.72703 73.0391 8.27733C72.5957 7.82763 72.0518 7.60303 71.4092 7.60303C70.7666 7.60303 70.2236 7.82763 69.7792 8.27733C69.3358 8.72703 69.1132 9.30133 69.1132 9.99953C69.1132 10.6977 69.3358 11.272 69.7792 11.7217Z" fill="#382A2C"/>
<path d="M75.5751 12.9995V6.99953H76.5137L79.4297 11.667H79.4628L79.4297 10.5107V6.99953H80.2012V12.9995H79.3965L76.3457 8.10593H76.3125L76.3457 9.26223V12.9995H75.5751Z" fill="#382A2C"/>
<path d="M68.136 21.7512C65.7838 21.7512 63.8666 23.5394 63.8666 26.0043C63.8666 28.4531 65.7838 30.2575 68.136 30.2575C70.4881 30.2575 72.4052 28.4531 72.4052 26.0043C72.4052 23.5394 70.4881 21.7512 68.136 21.7512ZM68.136 28.582C66.8472 28.582 65.7354 27.5187 65.7354 26.0043C65.7354 24.4738 66.8471 23.4267 68.136 23.4267C69.4248 23.4267 70.5364 24.4738 70.5364 26.0043C70.5364 27.5187 69.4248 28.582 68.136 28.582ZM58.8226 21.7512C56.4704 21.7512 54.5532 23.5394 54.5532 26.0043C54.5532 28.4531 56.4704 30.2575 58.8226 30.2575C61.1747 30.2575 63.0917 28.4531 63.0917 26.0043C63.0917 23.5394 61.1747 21.7512 58.8226 21.7512ZM58.8226 28.582C57.5337 28.582 56.422 27.5187 56.422 26.0043C56.422 24.4738 57.5336 23.4267 58.8226 23.4267C60.1114 23.4267 61.2229 24.4738 61.2229 26.0043C61.2229 27.5187 60.1114 28.582 58.8226 28.582ZM47.7437 23.0562V24.8605H52.0615C51.9325 25.8755 51.5943 26.6165 51.0787 27.1321C50.4504 27.7604 49.4675 28.4531 47.7437 28.4531C45.0855 28.4531 43.0074 26.3104 43.0074 23.6522C43.0074 20.994 45.0855 18.8513 47.7437 18.8513C49.1776 18.8513 50.2248 19.4152 50.9981 20.1401L52.2709 18.8674C51.1915 17.8364 49.7576 17.0469 47.7437 17.0469C44.1027 17.0469 41.0417 20.0113 41.0417 23.6522C41.0417 27.2932 44.1027 30.2575 47.7437 30.2575C49.7092 30.2575 51.1914 29.6131 52.3513 28.4048C53.5435 27.2126 53.9142 25.5372 53.9142 24.1839C53.9142 23.765 53.8819 23.3784 53.8173 23.0562H47.7437ZM93.052 24.4577C92.6976 23.5072 91.6182 21.7512 89.4111 21.7512C87.2201 21.7512 85.3996 23.475 85.3996 26.0043C85.3996 28.3887 87.204 30.2575 89.6205 30.2575C91.5698 30.2575 92.6976 29.0653 93.1647 28.3726L91.7148 27.406C91.2315 28.1148 90.571 28.582 89.6205 28.582C88.6699 28.582 87.9933 28.147 87.5583 27.2932L93.2454 24.9411L93.052 24.4577ZM87.2523 25.8755C87.204 24.2322 88.5251 23.3945 89.4755 23.3945C90.2167 23.3945 90.845 23.765 91.0544 24.2967L87.2523 25.8755ZM82.6286 29.9997H84.4973V17.4981H82.6286V29.9997ZM79.5676 22.7017H79.5031C79.0842 22.2023 78.2787 21.7512 77.2637 21.7512C75.1372 21.7512 73.1878 23.62 73.1878 26.0204C73.1878 28.4048 75.1372 30.2575 77.2637 30.2575C78.2787 30.2575 79.0842 29.8064 79.5031 29.2909H79.5676V29.9031C79.5676 31.5303 78.6976 32.4002 77.2959 32.4002C76.1522 32.4002 75.4433 31.5786 75.1534 30.8858L73.5261 31.5625C73.9934 32.6902 75.2338 34.0757 77.2959 34.0757C79.487 34.0757 81.3398 32.7869 81.3398 29.6453V22.0089H79.5676V22.7017ZM77.4249 28.582C76.1361 28.582 75.0567 27.5026 75.0567 26.0204C75.0567 24.5222 76.1362 23.4267 77.4249 23.4267C78.6977 23.4267 79.6965 24.5222 79.6965 26.0204C79.6964 27.5026 78.6976 28.582 77.4249 28.582ZM101.806 17.4983H97.3347V29.9997H99.2004V25.2633H101.806C103.874 25.2633 105.907 23.766 105.907 21.3808C105.907 18.9956 103.874 17.4983 101.806 17.4983ZM101.854 23.5235H99.2005V19.2382H101.854C103.249 19.2382 104.041 20.3933 104.041 21.3808C104.041 22.3497 103.249 23.5235 101.854 23.5235ZM113.386 21.7282C112.035 21.7282 110.636 22.3233 110.057 23.6421L111.713 24.3337C112.067 23.6421 112.726 23.4169 113.418 23.4169C114.383 23.4169 115.364 23.9959 115.38 25.0252V25.1539C115.042 24.9609 114.319 24.6714 113.434 24.6714C111.649 24.6714 109.831 25.6525 109.831 27.486C109.831 29.1586 111.295 30.2362 112.935 30.2362C114.19 30.2362 114.882 29.6733 115.316 29.0139H115.38V29.9789H117.181V25.1861C117.181 22.9666 115.525 21.7282 113.386 21.7282ZM113.161 28.5796C112.549 28.5796 111.697 28.2741 111.697 27.5181C111.697 26.5532 112.759 26.1832 113.675 26.1832C114.496 26.1832 114.882 26.3602 115.38 26.6014C115.235 27.7594 114.238 28.5796 113.161 28.5796ZM123.743 22.0016L121.604 27.4216H121.54L119.321 22.0016H117.31L120.639 29.5768L118.742 33.7906H120.688L125.818 22.0016H123.743ZM106.936 29.9997H108.802V17.4983H106.936V29.9997Z" fill="#382A2C"/>
<path d="M26.8406 15.6169L12.5137 7.47624C12.1675 7.27898 11.8372 7.17155 11.5359 7.14616C11.2639 7.12468 11.0156 7.1657 10.8008 7.26921L22.9434 19.4118L26.8406 15.6169Z" fill="#382A2C"/>
<path d="M10.2512 7.78288C10.0735 8.0778 9.97266 8.46648 9.97266 8.94109V31.0583C9.97266 31.3825 10.02 31.6696 10.1067 31.9118L22.406 19.9352L10.2512 7.78288Z" fill="#382A2C"/>
<path d="M10.5095 32.5368L10.5879 32.5973L10.658 32.6481C10.7249 32.693 10.7964 32.7301 10.8713 32.7594C10.9934 32.8102 11.125 32.8434 11.2617 32.8571C11.3362 32.8649 11.4026 32.8649 11.4814 32.861C11.7971 32.8434 12.1465 32.7341 12.5137 32.5251L26.8496 24.3805L22.9363 20.4665L10.5095 32.5368Z" fill="#382A2C"/>
<path d="M27.5271 23.9958L32.0146 21.445C32.1899 21.3454 32.3433 21.238 32.4746 21.1247C32.8589 20.7926 33.0547 20.4098 33.0627 20.0251L33.063 20.0016C33.063 19.5915 32.8477 19.1813 32.4172 18.8317C32.2991 18.736 32.1655 18.6442 32.0146 18.5583L27.5195 16.0036L23.4739 19.943L27.5271 23.9958Z" fill="#382A2C"/>
</svg>
