<svg width="120" height="40" viewBox="0 0 120 40" fill="none" xmlns="http://www.w3.org/2000/svg">
<rect x="0.5" y="0.5" width="119" height="39" rx="6.5" stroke="#382A2C"/>
<path d="M42.6926 27.1397H37.9592L36.8225 30.4962H34.8176L39.301 18.0782H41.384L45.8674 30.4962H43.8284L42.6926 27.1397ZM38.4495 25.5909H42.2015L40.3518 20.1436H40.3L38.4495 25.5909Z" fill="#382A2C"/>
<path d="M55.5501 25.9695C55.5501 28.7829 54.0442 30.5905 51.7718 30.5905C51.1961 30.6207 50.6236 30.4881 50.1198 30.2079C49.616 29.9278 49.2013 29.5114 48.9231 29.0065H48.8801V33.4909H47.0217V21.4421H48.8206V22.948H48.8547C49.1457 22.4455 49.5674 22.0313 50.0751 21.7495C50.5827 21.4676 51.1572 21.3287 51.7375 21.3474C54.0354 21.3474 55.5501 23.1638 55.5501 25.9695ZM53.6399 25.9695C53.6399 24.1365 52.6926 22.9314 51.2473 22.9314C49.8274 22.9314 48.8723 24.1618 48.8723 25.9695C48.8723 27.7937 49.8274 29.0154 51.2473 29.0154C52.6927 29.0154 53.6399 27.8191 53.6399 25.9695Z" fill="#382A2C"/>
<path d="M65.5154 25.9695C65.5154 28.7829 64.0091 30.5905 61.7366 30.5905C61.1609 30.6207 60.5884 30.4881 60.0847 30.2079C59.5809 29.9278 59.1661 29.5114 58.888 29.0065H58.845V33.4909H56.9866V21.4421H58.7854V22.948H58.8196C59.1105 22.4455 59.5323 22.0313 60.0399 21.7495C60.5475 21.4676 61.1221 21.3287 61.7024 21.3474C64.0003 21.3474 65.5154 23.1638 65.5154 25.9695ZM63.6048 25.9695C63.6048 24.1365 62.6575 22.9314 61.2122 22.9314C59.7923 22.9314 58.8372 24.1618 58.8372 25.9695C58.8372 27.7937 59.7923 29.0154 61.2122 29.0154C62.6575 29.0154 63.6048 27.8191 63.6048 25.9695Z" fill="#382A2C"/>
<path d="M72.1004 27.0362C72.2381 28.2676 73.4344 29.0762 75.0691 29.0762C76.6355 29.0762 77.7625 28.2676 77.7625 27.1572C77.7625 26.1934 77.0828 25.6162 75.4734 25.2207L73.8641 24.833C71.5838 24.2822 70.5252 23.2158 70.5252 21.4854C70.5252 19.3428 72.3924 17.8711 75.0428 17.8711C77.6678 17.8711 79.4666 19.3428 79.5272 21.4854H77.6512C77.5389 20.2461 76.5144 19.4981 75.0174 19.4981C73.5203 19.4981 72.4959 20.2549 72.4959 21.3565C72.4959 22.2344 73.1502 22.751 74.7508 23.1465L76.1189 23.4824C78.6668 24.0849 79.7244 25.1084 79.7244 26.9248C79.7244 29.248 77.8748 30.7031 74.9314 30.7031C72.1775 30.7031 70.3181 29.2822 70.198 27.0361L72.1004 27.0362Z" fill="#382A2C"/>
<path d="M83.7371 19.3008V21.4434H85.4587V22.915H83.7371V27.9062C83.7371 28.6816 84.0818 29.043 84.8386 29.043C85.043 29.0394 85.2471 29.0251 85.4499 29V30.4629C85.1097 30.5264 84.7638 30.5552 84.4177 30.5488C82.5847 30.5488 81.8699 29.8603 81.8699 28.1045V22.915H80.5535V21.4434H81.8698V19.3008H83.7371Z" fill="#382A2C"/>
<path d="M86.4548 25.9707C86.4548 23.1221 88.1326 21.332 90.7488 21.332C93.3738 21.332 95.0437 23.122 95.0437 25.9707C95.0437 28.8272 93.3826 30.6094 90.7488 30.6094C88.1159 30.6094 86.4548 28.8271 86.4548 25.9707ZM93.1501 25.9707C93.1501 24.0166 92.2546 22.8633 90.7488 22.8633C89.2429 22.8633 88.3474 24.0254 88.3474 25.9707C88.3474 27.9326 89.2429 29.0772 90.7488 29.0772C92.2546 29.0772 93.1501 27.9326 93.1501 25.9707Z" fill="#382A2C"/>
<path d="M96.5759 21.442H98.3484V22.983H98.3914C98.5113 22.5017 98.7933 22.0764 99.1899 21.7785C99.5864 21.4806 100.073 21.3284 100.569 21.3473C100.783 21.3465 100.997 21.3698 101.206 21.4166V23.1549C100.935 23.0723 100.653 23.0343 100.371 23.0426C100.101 23.0316 99.8317 23.0792 99.5819 23.1821C99.332 23.285 99.1074 23.4408 98.9234 23.6386C98.7395 23.8365 98.6005 24.0719 98.5161 24.3286C98.4316 24.5852 98.4038 24.8571 98.4343 25.1256V30.4957H96.5759L96.5759 21.442Z" fill="#382A2C"/>
<path d="M109.774 27.8379C109.524 29.4814 107.924 30.6094 105.876 30.6094C103.242 30.6094 101.607 28.8447 101.607 26.0137C101.607 23.1738 103.251 21.332 105.798 21.332C108.302 21.332 109.878 23.0527 109.878 25.7978V26.4346H103.483V26.5469C103.454 26.8801 103.495 27.2157 103.606 27.5316C103.716 27.8474 103.892 28.1362 104.122 28.3787C104.353 28.6213 104.632 28.8121 104.942 28.9384C105.251 29.0647 105.584 29.1236 105.919 29.1113C106.358 29.1525 106.799 29.0508 107.175 28.8213C107.552 28.5919 107.845 28.247 108.01 27.8379L109.774 27.8379ZM103.492 25.1357H108.018C108.035 24.8361 107.99 24.5363 107.885 24.2551C107.78 23.9739 107.619 23.7174 107.41 23.5016C107.201 23.2858 106.951 23.1155 106.673 23.0013C106.396 22.8871 106.098 22.8314 105.798 22.8379C105.495 22.8361 105.195 22.8942 104.915 23.009C104.635 23.1237 104.38 23.2928 104.166 23.5064C103.952 23.72 103.782 23.974 103.666 24.2537C103.55 24.5333 103.491 24.8331 103.492 25.1357Z" fill="#382A2C"/>
<path d="M25.3877 19.8901C25.3988 19.0221 25.6294 18.1711 26.0579 17.4162C26.4863 16.6613 27.0988 16.027 27.8382 15.5724C27.3685 14.9015 26.7488 14.3494 26.0283 13.9599C25.3078 13.5704 24.5065 13.3542 23.6878 13.3286C21.9416 13.1453 20.2487 14.3735 19.3588 14.3735C18.4518 14.3735 17.0817 13.3468 15.6064 13.3772C14.6521 13.408 13.7221 13.6855 12.9069 14.1826C12.0918 14.6798 11.4193 15.3796 10.955 16.2139C8.9439 19.6959 10.444 24.8133 12.3705 27.6279C13.3344 29.0061 14.4609 30.5456 15.9349 30.491C17.3773 30.4312 17.916 29.5712 19.6571 29.5712C21.382 29.5712 21.8874 30.491 23.3914 30.4563C24.9391 30.4312 25.9143 29.072 26.8444 27.6807C27.5369 26.6986 28.0698 25.6133 28.4234 24.4648C27.5242 24.0845 26.7568 23.4479 26.217 22.6343C25.6771 21.8208 25.3887 20.8664 25.3877 19.8901Z" fill="#382A2C"/>
<path d="M22.547 11.4775C23.3909 10.4645 23.8066 9.16233 23.706 7.84766C22.4167 7.98307 21.2257 8.59927 20.3704 9.57348C19.9522 10.0494 19.6319 10.6031 19.4279 11.2029C19.2238 11.8026 19.1399 12.4368 19.1811 13.069C19.826 13.0756 20.4639 12.9358 21.047 12.6602C21.63 12.3845 22.1429 11.9802 22.547 11.4775Z" fill="#382A2C"/>
<path d="M38.2168 8.7315C38.6064 8.70354 38.9974 8.7624 39.3615 8.90383C39.7256 9.04527 40.0538 9.26575 40.3224 9.54937C40.5909 9.833 40.7932 10.1727 40.9146 10.544C41.036 10.9152 41.0735 11.3088 41.0244 11.6963C41.0244 13.6026 39.9941 14.6983 38.2168 14.6983H36.0615V8.7315H38.2168ZM36.9883 13.8545H38.1133C38.3917 13.8711 38.6703 13.8255 38.9288 13.7209C39.1874 13.6163 39.4193 13.4553 39.6078 13.2498C39.7963 13.0442 39.9366 12.7992 40.0185 12.5326C40.1003 12.2659 40.1217 11.9844 40.081 11.7085C40.1188 11.4337 40.0952 11.1539 40.0121 10.8892C39.929 10.6246 39.7883 10.3816 39.6003 10.1776C39.4122 9.9737 39.1814 9.81389 38.9243 9.70966C38.6672 9.60542 38.3903 9.55934 38.1133 9.57471H36.9883V13.8545Z" fill="#382A2C"/>
<path d="M42.0713 12.4458C42.043 12.1498 42.0769 11.8513 42.1707 11.5692C42.2645 11.2871 42.4163 11.0278 42.6162 10.8078C42.8162 10.5878 43.0599 10.4121 43.3318 10.2918C43.6036 10.1715 43.8976 10.1094 44.1949 10.1094C44.4921 10.1094 44.7861 10.1715 45.058 10.2918C45.3298 10.4121 45.5735 10.5878 45.7735 10.8078C45.9734 11.0278 46.1252 11.2871 46.219 11.5692C46.3129 11.8513 46.3467 12.1498 46.3184 12.4458C46.3472 12.742 46.3138 13.041 46.2202 13.3235C46.1266 13.606 45.9749 13.8658 45.7749 14.0862C45.575 14.3067 45.3311 14.4828 45.0589 14.6033C44.7868 14.7239 44.4925 14.7861 44.1949 14.7861C43.8972 14.7861 43.6029 14.7239 43.3308 14.6033C43.0587 14.4828 42.8148 14.3067 42.6148 14.0862C42.4148 13.8658 42.2631 13.606 42.1695 13.3235C42.0759 13.041 42.0425 12.742 42.0713 12.4458ZM45.4043 12.4458C45.4043 11.4697 44.9658 10.8989 44.1963 10.8989C43.4239 10.8989 42.9893 11.4697 42.9893 12.4458C42.9893 13.4297 43.4239 13.9961 44.1963 13.9961C44.9659 13.996 45.4043 13.4257 45.4043 12.4458Z" fill="#382A2C"/>
<path d="M51.9639 14.6982H51.042L50.1113 11.3818H50.041L49.1143 14.6982H48.2012L46.96 10.1953H47.8613L48.668 13.6313H48.7344L49.6602 10.1953H50.5127L51.4385 13.6313H51.5088L52.3115 10.1953H53.2002L51.9639 14.6982Z" fill="#382A2C"/>
<path d="M54.2441 10.1949H55.0996V10.9102H55.166C55.2787 10.6533 55.4687 10.4379 55.7095 10.2941C55.9504 10.1503 56.2302 10.0852 56.5098 10.1079C56.7289 10.0915 56.9489 10.1245 57.1535 10.2046C57.3581 10.2847 57.542 10.4098 57.6917 10.5707C57.8414 10.7315 57.953 10.924 58.0182 11.1338C58.0834 11.3436 58.1005 11.5654 58.0684 11.7827V14.6977H57.1797V12.0059C57.1797 11.2823 56.8652 10.9224 56.208 10.9224C56.0593 10.9155 55.9108 10.9408 55.7727 10.9966C55.6346 11.0525 55.5103 11.1375 55.4082 11.2459C55.306 11.3543 55.2286 11.4834 55.181 11.6246C55.1335 11.7657 55.1171 11.9154 55.1328 12.0635V14.6978H54.2441L54.2441 10.1949Z" fill="#382A2C"/>
<path d="M59.4844 8.4375H60.373V14.6982H59.4844V8.4375Z" fill="#382A2C"/>
<path d="M61.6084 12.4439C61.5801 12.1479 61.614 11.8494 61.7079 11.5673C61.8017 11.2852 61.9535 11.0259 62.1535 10.8059C62.3534 10.5859 62.5972 10.4101 62.869 10.2898C63.1409 10.1696 63.4349 10.1074 63.7322 10.1074C64.0295 10.1074 64.3235 10.1696 64.5954 10.2898C64.8672 10.4101 65.111 10.5859 65.3109 10.8059C65.5109 11.0259 65.6627 11.2852 65.7565 11.5673C65.8504 11.8494 65.8843 12.1479 65.856 12.4439C65.8848 12.7401 65.8513 13.0391 65.7577 13.3216C65.6641 13.6042 65.5124 13.864 65.3124 14.0844C65.1123 14.3048 64.8684 14.4809 64.5963 14.6014C64.3242 14.722 64.0298 14.7842 63.7322 14.7842C63.4346 14.7842 63.1402 14.722 62.8681 14.6014C62.5959 14.4809 62.352 14.3048 62.152 14.0844C61.952 13.864 61.8003 13.6042 61.7067 13.3216C61.6131 13.0391 61.5796 12.7401 61.6084 12.4439ZM64.9414 12.4439C64.9414 11.4678 64.5029 10.897 63.7334 10.897C62.9609 10.897 62.5264 11.4678 62.5264 12.4439C62.5264 13.4278 62.961 13.9942 63.7334 13.9942C64.5029 13.9942 64.9414 13.4239 64.9414 12.4439Z" fill="#382A2C"/>
<path d="M66.7915 13.4258C66.7915 12.6152 67.395 12.1479 68.4663 12.0815L69.686 12.0112V11.6226C69.686 11.147 69.3716 10.8784 68.7642 10.8784C68.2681 10.8784 67.9243 11.0605 67.8257 11.3789H66.9653C67.0562 10.6055 67.7837 10.1094 68.8052 10.1094C69.9341 10.1094 70.5708 10.6714 70.5708 11.6226V14.6992H69.7153V14.0664H69.645C69.5023 14.2934 69.3019 14.4784 69.0643 14.6027C68.8267 14.7269 68.5603 14.7858 68.2925 14.7734C68.1034 14.7931 67.9124 14.7729 67.7316 14.7142C67.5509 14.6555 67.3844 14.5596 67.243 14.4326C67.1016 14.3056 66.9883 14.1504 66.9106 13.977C66.8328 13.8036 66.7922 13.6158 66.7915 13.4258ZM69.686 13.041V12.6645L68.5864 12.7349C67.9663 12.7764 67.6851 12.9873 67.6851 13.3843C67.6851 13.7895 68.0366 14.0254 68.5201 14.0254C68.6617 14.0397 68.8048 14.0254 68.9408 13.9833C69.0768 13.9412 69.2029 13.8722 69.3117 13.7804C69.4205 13.6885 69.5097 13.5757 69.574 13.4487C69.6383 13.3217 69.6764 13.183 69.686 13.041Z" fill="#382A2C"/>
<path d="M71.7388 12.4448C71.7388 11.022 72.4702 10.1206 73.6079 10.1206C73.8893 10.1077 74.1686 10.1751 74.4131 10.315C74.6577 10.4548 74.8573 10.6615 74.9888 10.9106H75.0552V8.4375H75.9438V14.6982H75.0923V13.9868H75.022C74.8804 14.2343 74.6738 14.4383 74.4245 14.5768C74.1753 14.7153 73.8929 14.783 73.6079 14.7724C72.4624 14.7725 71.7388 13.8711 71.7388 12.4448ZM72.6568 12.4448C72.6568 13.3999 73.107 13.9746 73.8599 13.9746C74.6089 13.9746 75.0718 13.3916 75.0718 12.4487C75.0718 11.5103 74.604 10.919 73.8599 10.919C73.1118 10.919 72.6568 11.4976 72.6568 12.4448Z" fill="#382A2C"/>
<path d="M79.6206 12.4458C79.5923 12.1498 79.6262 11.8513 79.72 11.5692C79.8139 11.2871 79.9656 11.0278 80.1656 10.8078C80.3655 10.5878 80.6092 10.4121 80.8811 10.2918C81.1529 10.1715 81.4469 10.1094 81.7442 10.1094C82.0414 10.1094 82.3354 10.1715 82.6073 10.2918C82.8791 10.4121 83.1228 10.5878 83.3228 10.8078C83.5227 11.0278 83.6745 11.2871 83.7683 11.5692C83.8622 11.8513 83.896 12.1498 83.8677 12.4458C83.8966 12.742 83.8631 13.041 83.7695 13.3235C83.6759 13.606 83.5243 13.8658 83.3243 14.0862C83.1243 14.3067 82.8804 14.4828 82.6083 14.6033C82.3361 14.7239 82.0418 14.7861 81.7442 14.7861C81.4466 14.7861 81.1522 14.7239 80.8801 14.6033C80.608 14.4828 80.3641 14.3067 80.1641 14.0862C79.9641 13.8658 79.8124 13.606 79.7188 13.3235C79.6252 13.041 79.5918 12.742 79.6206 12.4458ZM82.9536 12.4458C82.9536 11.4697 82.5152 10.8989 81.7456 10.8989C80.9732 10.8989 80.5386 11.4697 80.5386 12.4458C80.5386 13.4297 80.9732 13.9961 81.7456 13.9961C82.5152 13.996 82.9536 13.4257 82.9536 12.4458Z" fill="#382A2C"/>
<path d="M85.0601 10.1949H85.9155V10.9102H85.9819C86.0946 10.6533 86.2846 10.4379 86.5255 10.2941C86.7663 10.1503 87.0461 10.0852 87.3257 10.1079C87.5448 10.0915 87.7648 10.1245 87.9694 10.2046C88.174 10.2847 88.3579 10.4098 88.5076 10.5707C88.6573 10.7315 88.7689 10.924 88.8341 11.1338C88.8993 11.3436 88.9164 11.5654 88.8843 11.7827V14.6977H87.9956V12.0059C87.9956 11.2823 87.6812 10.9224 87.0239 10.9224C86.8752 10.9155 86.7267 10.9408 86.5886 10.9966C86.4506 11.0525 86.3262 11.1375 86.2241 11.2459C86.122 11.3543 86.0445 11.4834 85.9969 11.6246C85.9494 11.7657 85.933 11.9154 85.9487 12.0635V14.6978H85.0601V10.1949Z" fill="#382A2C"/>
<path d="M93.9058 9.07422V10.2158H94.8814V10.9644H93.9058V13.2798C93.9058 13.7515 94.1001 13.958 94.5425 13.958C94.6557 13.9576 94.7689 13.9508 94.8814 13.9375V14.6777C94.7218 14.7063 94.5601 14.7215 94.3979 14.7231C93.4097 14.7231 93.0161 14.3755 93.0161 13.5073V10.9643H92.3013V10.2158H93.0161V9.07422H93.9058Z" fill="#382A2C"/>
<path d="M96.0952 8.4375H96.9761V10.919H97.0464C97.1645 10.6596 97.3597 10.443 97.6054 10.2987C97.8511 10.1543 98.1354 10.0893 98.4194 10.1123C98.6373 10.1004 98.8552 10.1368 99.0575 10.2189C99.2598 10.3009 99.4415 10.4266 99.5896 10.5869C99.7377 10.7473 99.8486 10.9383 99.9144 11.1465C99.9802 11.3546 99.9992 11.5747 99.9702 11.791V14.6982H99.0806V12.0103C99.0806 11.291 98.7456 10.9268 98.1177 10.9268C97.965 10.9142 97.8113 10.9352 97.6676 10.9883C97.5238 11.0413 97.3933 11.1252 97.2853 11.2339C97.1774 11.3426 97.0944 11.4737 97.0424 11.6178C96.9903 11.7619 96.9703 11.9157 96.9839 12.0683V14.6982H96.0953L96.0952 8.4375Z" fill="#382A2C"/>
<path d="M105.152 13.4815C105.031 13.8931 104.769 14.249 104.413 14.4872C104.056 14.7253 103.627 14.8305 103.201 14.7842C102.904 14.7921 102.609 14.7353 102.337 14.6177C102.064 14.5002 101.82 14.3248 101.623 14.1036C101.425 13.8825 101.277 13.6209 101.191 13.3371C101.104 13.0533 101.08 12.754 101.121 12.46C101.081 12.1652 101.105 11.8652 101.192 11.5805C101.278 11.2959 101.425 11.0331 101.622 10.81C101.819 10.587 102.061 10.4088 102.333 10.2876C102.605 10.1664 102.899 10.105 103.197 10.1075C104.45 10.1075 105.205 10.9635 105.205 12.3775V12.6876H102.026V12.7374C102.012 12.9026 102.033 13.069 102.087 13.2257C102.141 13.3825 102.227 13.5262 102.34 13.6476C102.453 13.7691 102.59 13.8656 102.742 13.931C102.895 13.9964 103.059 14.0292 103.225 14.0274C103.438 14.0529 103.653 14.0146 103.844 13.9174C104.034 13.8202 104.192 13.6685 104.296 13.4815L105.152 13.4815ZM102.026 12.0303H104.3C104.311 11.8792 104.291 11.7274 104.24 11.5847C104.189 11.442 104.109 11.3115 104.004 11.2016C103.9 11.0918 103.774 11.005 103.634 10.9468C103.494 10.8886 103.343 10.8604 103.192 10.8638C103.038 10.8619 102.886 10.8908 102.743 10.9487C102.601 11.0067 102.471 11.0925 102.363 11.2012C102.254 11.3099 102.168 11.4393 102.11 11.5817C102.053 11.7241 102.024 11.8766 102.026 12.0303Z" fill="#382A2C"/>
</svg>
